<svg version="1.0" xmlns="http://www.w3.org/2000/svg" width="341.333" height="341.333" viewBox="0 0 256 256"><path d="M118.8 14.5c-.2.2-3.5.5-7.4.8-11.3.9-29.6 6.5-40.4 12.3-14.7 7.9-31.6 23.1-40.2 36-9.3 14-16.8 32.4-18.3 44.8-.3 2.3-.8 5.2-1 6.6-.8 3.4-.7 21.5 0 27 6.2 46.8 39.5 84.4 85.2 96.1 14.7 3.7 34.1 4.4 47.8 1.6 6.2-1.3 10.1-2.1 10.7-2.1.3-.1 1-.4 1.4-.9.4-.4 1.4-.7 2.2-.7 4 0 24.4-10.5 33.1-17.1 28-21.2 44.8-53.4 45.5-87.4l.1-3-6.5-.2c-5.8-.2-25.1-.3-29-.2-.8.1-6.2.1-12 0h-12c-.8.1-6.2.1-12 0h-12c-.8 0-7.9 0-15.7-.1l-14.1-.1 5.4-15.7c3-8.6 8-23.1 11-32.2 3-9.1 6-17.4 6.5-18.5.5-1.1 2-5.4 3.3-9.5 2.5-7.6 8.9-26.1 10.1-29.2.9-2.3-1.4-3.3-13.2-5.7-8.3-1.7-27.5-3.5-28.5-2.6z"/><path d="M178.5 19.3c-.2.6-2.2 6.4-4.3 12.7-2.2 6.3-5.2 15.1-6.7 19.5-5.3 15.5-19.3 56-20 57.8-.7 1.6 1.9 1.7 48.6 1.5l49.3-.3-.3-5c-1.7-29.6-16.9-57.3-40.6-74-12-8.4-25.2-14.7-26-12.2z"/></svg>