<svg aria-hidden="true" style="width:0;height:0;position:absolute;overflow:hidden" xmlns="http://www.w3.org/2000/svg"><defs><symbol id="icon-arrow" viewBox="0 0 16 32"><path d="m14.02 17.063-8.501 8.498a1.49 1.49 0 0 1-2.119 0l-1.412-1.412c-.272-.27-.44-.645-.44-1.059s.168-.788.44-1.059l6.025-6.027-6.025-6.025c-.272-.271-.44-.645-.44-1.059s.168-.788.44-1.059l1.406-1.426a1.49 1.49 0 0 1 2.119 0l8.5 8.5c.594.587.594 1.538.007 2.126z"/></symbol><symbol id="icon-banking" viewBox="0 0 32 32"><path d="M31 8v1.001a.5.5 0 0 1-.5.5H29v.75a.75.75 0 0 1-.75.749H3.749A.75.75 0 0 1 3 10.251v-.75H1.498a.5.5 0 0 1-.5-.5V8a.5.5 0 0 1 .306-.46l.003-.001 14.5-5.501a.49.49 0 0 1 .385.001l-.003-.001 14.502 5.501a.501.501 0 0 1 .309.462zm-1.5 19h-27A1.5 1.5 0 0 0 1 28.499v1a.5.5 0 0 0 .5.5h29.001a.5.5 0 0 0 .5-.5v-1.001a1.5 1.5 0 0 0-1.5-1.499zM6 12v12H3.751a.75.75 0 0 0-.75.75V26h26v-1.25a.75.75 0 0 0-.75-.75h-2.25V12h-4v12h-4V12h-4v12h-4V12h-4z"/></symbol><symbol id="icon-facebook" viewBox="0 0 32 32"><path d="M31.5 16.343c0-8.562-6.938-15.5-15.5-15.5S.5 7.781.5 16.343c0 7.75 5.625 14.188 13.062 15.312V20.843H9.624v-4.5h3.938v-3.375c0-3.876 2.313-6.063 5.812-6.063 1.751 0 3.501.313 3.501.313v3.813h-1.938c-1.937 0-2.562 1.187-2.562 2.437v2.875h4.312l-.688 4.5h-3.624v10.812C25.812 30.53 31.5 24.093 31.5 16.343z"/></symbol><symbol id="icon-linkedin" viewBox="0 0 32 32"><path d="M7.25 32V10.901H.688V32H7.25zM3.934 8.078c2.116 0 3.81-1.764 3.81-3.881 0-2.046-1.693-3.74-3.81-3.74-2.047 0-3.74 1.694-3.74 3.74 0 2.117 1.693 3.881 3.74 3.881zM31.736 32h.071V20.428c0-5.646-1.271-10.021-7.904-10.021-3.175 0-5.292 1.764-6.209 3.387h-.071v-2.893h-6.28V32h6.563V21.557c0-2.752.493-5.363 3.881-5.363 3.386 0 3.458 3.104 3.458 5.574V32h6.491z"/></symbol><symbol id="icon-logo" viewBox="0 0 37 32"><path d="M33.83 2.002c-3.419.196-10.214.902-14.409 3.475a.959.959 0 0 0-.454.823v22.742c0 .722.788 1.178 1.453.843 4.315-2.176 10.558-2.77 13.645-2.932 1.054-.055 1.873-.901 1.873-1.916V3.923c0-1.107-.957-1.984-2.107-1.92zM16.517 5.478C12.322 2.905 5.526 2.198 2.108 2.004.957 1.938 0 2.815 0 3.922v21.115c0 1.015.819 1.861 1.873 1.916 3.088.162 9.333.756 13.65 2.935.662.334 1.447-.122 1.447-.842V6.281c0-.34-.18-.637-.449-.803l-.004-.002z"/></symbol><symbol id="icon-manager" viewBox="0 0 32 32"><path d="M21.858 6.167v-.075a5.9 5.9 0 1 0-11.799.079v-.004a5.901 5.901 0 0 0 11.8.004v-.004zm-7.277 8.917c-3.646-2.232-9.553-2.845-12.524-3.015-.999-.056-1.832.704-1.832 1.666v13.692c0 .88.712 1.615 1.628 1.662 2.682.141 8.111.656 11.864 2.546.576.29 1.258-.104 1.258-.729V15.784a.816.816 0 0 0-.392-.698l-.004-.002zM29.86 12.07c-2.971.169-8.878.782-12.524 3.015a.832.832 0 0 0-.393.708V30.907c0 .626.684 1.021 1.261.73 3.752-1.888 9.177-2.404 11.86-2.544.917-.048 1.628-.782 1.628-1.663V13.736c0-.96-.833-1.721-1.832-1.665z"/></symbol><symbol id="icon-pencil" viewBox="0 0 32 32"><path d="m31.119 8.881-2.882 2.882a.749.749 0 0 1-1.062 0l-6.938-6.937a.75.75 0 0 1 0-1.064l2.882-2.88c.544-.542 1.294-.877 2.122-.877s1.578.335 2.122.877l3.755 3.755c.545.542.882 1.293.882 2.122s-.337 1.58-.882 2.122zM17.763 6.237 1.35 22.65.026 30.243a1.502 1.502 0 0 0 1.747 1.736l-.009.001 7.593-1.331L25.77 14.236a.749.749 0 0 0 0-1.062l-6.936-6.938a.757.757 0 0 0-1.07 0zM7.755 21.244a.87.87 0 0 1 0-1.238l9.626-9.625a.869.869 0 0 1 1.236 0 .87.87 0 0 1 0 1.238l-9.625 9.625a.87.87 0 0 1-1.238 0zM5.499 26.5h3v2.268l-4.031.707-1.944-1.944.706-4.031h2.268v3z"/></symbol><symbol id="icon-twitter" viewBox="0 0 37 32"><path d="M33.469 8.284c1.458-1.094 2.771-2.406 3.792-3.938a14.363 14.363 0 0 1-4.375 1.167c1.604-.948 2.771-2.406 3.355-4.229a15.87 15.87 0 0 1-4.705 1.875l-.108.02A7.635 7.635 0 0 0 25.856.774h-.045.002-.001a7.655 7.655 0 0 0-7.655 7.655c0 .583.074 1.167.22 1.75A22.202 22.202 0 0 1 2.583 2.194l-.029-.036c-.657 1.094-1.021 2.406-1.021 3.865a7.536 7.536 0 0 0 3.426 6.345c-1.239-.074-2.479-.365-3.499-.948v.073c0 3.719 2.624 6.782 6.124 7.51-.582.146-1.312.292-1.968.292-.511 0-.948-.074-1.459-.146.949 3.062 3.792 5.25 7.147 5.323-2.625 2.043-5.906 3.282-9.479 3.282-.656 0-1.239-.074-1.823-.146 3.355 2.187 7.364 3.427 11.74 3.427 14.073 0 21.729-11.595 21.729-21.729V8.285z"/></symbol><symbol id="icon-youtube" viewBox="0 0 45 32"><path d="M43.665 5.831c-.486-1.944-2.027-3.484-3.89-3.97C36.292.889 22.519.889 22.519.889s-13.855 0-17.338.972c-1.862.486-3.403 2.027-3.889 3.97C.32 9.232.32 16.525.32 16.525s0 7.211.972 10.695c.486 1.944 2.025 3.401 3.889 3.889C8.665 32 22.519 32 22.519 32s13.773 0 17.256-.891c1.864-.486 3.404-1.944 3.89-3.889.972-3.484.972-10.695.972-10.695s0-7.291-.972-10.694zM17.982 23.087V9.962l11.505 6.562-11.505 6.562z"/></symbol></defs></svg>