<svg aria-hidden="true" style="position: absolute; width: 0; height: 0; overflow: hidden;" version="1.1" xmlns="http://www.w3.org/2000/svg" xmlns:xlink="http://www.w3.org/1999/xlink">
<defs>
<symbol id="icon-arrow" viewBox="0 0 16 32">
<path d="M14.020 17.063l-8.501 8.498c-0.271 0.272-0.645 0.441-1.060 0.441s-0.789-0.169-1.059-0.441l-1.412-1.412c-0.272-0.27-0.44-0.645-0.44-1.059s0.168-0.788 0.44-1.059l6.025-6.027-6.025-6.025c-0.272-0.271-0.44-0.645-0.44-1.059s0.168-0.788 0.44-1.059l0-0 1.406-1.426c0.271-0.272 0.645-0.441 1.060-0.441s0.789 0.169 1.059 0.441l8.5 8.5c0.594 0.587 0.594 1.538 0.007 2.126z"></path>
</symbol>
<symbol id="icon-banking" viewBox="0 0 32 32">
<path d="M31 8v1c0 0 0 0.001 0 0.001 0 0.276-0.224 0.5-0.5 0.5-0 0-0.001 0-0.001 0h-1.499v0.75c0 0.414-0.336 0.749-0.75 0.749h-24.501c-0.414-0.001-0.749-0.336-0.749-0.749v-0.75h-1.501c-0 0-0.001 0-0.001 0-0.276 0-0.5-0.224-0.5-0.5 0-0 0-0.001 0-0.001v0-1c0-0.207 0.127-0.384 0.306-0.46l0.003-0.001 14.5-5.501c0.056-0.024 0.122-0.038 0.191-0.038s0.135 0.014 0.194 0.039l-0.003-0.001 14.502 5.501c0.183 0.077 0.309 0.255 0.309 0.462 0 0 0 0 0 0v-0zM29.5 27h-27c-0.828 0-1.5 0.671-1.5 1.499v1c0 0 0 0 0 0 0 0.276 0.224 0.5 0.5 0.5 0 0 0.001 0 0.001 0h28.999c0 0 0.001 0 0.001 0 0.276 0 0.5-0.224 0.5-0.5 0 0 0 0 0 0v0-1.001c0-0.828-0.672-1.499-1.5-1.499zM6 12v12h-2.249c-0.414 0-0.75 0.336-0.75 0.75v1.25h26v-1.25c0-0.414-0.336-0.75-0.75-0.75v0h-2.25v-12h-4v12h-4v-12h-4v12h-4v-12h-4z"></path>
</symbol>
<symbol id="icon-facebook" viewBox="0 0 32 32">
<path d="M31.5 16.343c0-8.562-6.938-15.5-15.5-15.5s-15.5 6.938-15.5 15.5c0 7.75 5.625 14.188 13.062 15.312v-10.812h-3.938v-4.5h3.938v-3.375c0-3.876 2.313-6.063 5.812-6.063 1.751 0 3.501 0.313 3.501 0.313v3.813h-1.938c-1.937 0-2.562 1.187-2.562 2.437v2.875h4.312l-0.688 4.5h-3.624v10.812c7.437-1.125 13.125-7.562 13.125-15.312z"></path>
</symbol>
<symbol id="icon-linkedin" viewBox="0 0 32 32">
<path d="M7.25 32v-21.099h-6.562v21.099h6.562zM3.934 8.078c2.116 0 3.81-1.764 3.81-3.881 0-2.046-1.693-3.74-3.81-3.74-2.047 0-3.74 1.694-3.74 3.74 0 2.117 1.693 3.881 3.74 3.881zM31.736 32h0.071v-11.572c0-5.646-1.271-10.021-7.904-10.021-3.175 0-5.292 1.764-6.209 3.387h-0.071v-2.893h-6.28v21.099h6.563v-10.443c0-2.752 0.493-5.363 3.881-5.363 3.386 0 3.458 3.104 3.458 5.574v10.232h6.491z"></path>
</symbol>
<symbol id="icon-logo" viewBox="0 0 37 32">
<path d="M33.83 2.002c-3.419 0.196-10.214 0.902-14.409 3.475-0.291 0.177-0.454 0.494-0.454 0.823v22.742c0 0.722 0.788 1.178 1.453 0.843 4.315-2.176 10.558-2.77 13.645-2.932 1.054-0.055 1.873-0.901 1.873-1.916v-21.114c0-1.107-0.957-1.984-2.107-1.92zM16.517 5.478c-4.195-2.573-10.991-3.28-14.409-3.474-1.151-0.066-2.108 0.811-2.108 1.918v21.115c0 1.015 0.819 1.861 1.873 1.916 3.088 0.162 9.333 0.756 13.65 2.935 0.662 0.334 1.447-0.122 1.447-0.842v-22.758c0-0.002 0-0.004 0-0.007 0-0.34-0.18-0.637-0.449-0.803l-0.004-0.002z"></path>
</symbol>
<symbol id="icon-manager" viewBox="0 0 32 32">
<path d="M21.858 6.167c0-0.022 0-0.048 0-0.075 0-3.259-2.642-5.9-5.9-5.9s-5.9 2.642-5.9 5.9c0 0.026 0 0.052 0.001 0.079l-0-0.004c0.042 3.226 2.667 5.826 5.9 5.826s5.858-2.599 5.9-5.822l0-0.004zM14.581 15.084c-3.646-2.232-9.553-2.845-12.524-3.015-0.999-0.056-1.832 0.704-1.832 1.666v13.692c0 0.88 0.712 1.615 1.628 1.662 2.682 0.141 8.111 0.656 11.864 2.546 0.576 0.29 1.258-0.104 1.258-0.729v-15.118c0-0.001 0-0.002 0-0.004 0-0.296-0.157-0.555-0.392-0.698l-0.004-0.002zM29.86 12.070c-2.971 0.169-8.878 0.782-12.524 3.015-0.238 0.149-0.393 0.41-0.393 0.708 0 0.003 0 0.005 0 0.008v-0 15.106c0 0.626 0.684 1.021 1.261 0.73 3.752-1.888 9.177-2.404 11.86-2.544 0.917-0.048 1.628-0.782 1.628-1.663v-13.694c0-0.96-0.833-1.721-1.832-1.665z"></path>
</symbol>
<symbol id="icon-pencil" viewBox="0 0 32 32">
<path d="M31.119 8.881l-2.882 2.882c-0.136 0.136-0.324 0.22-0.531 0.22s-0.395-0.084-0.531-0.22l-6.938-6.937c-0.136-0.136-0.221-0.324-0.221-0.532s0.084-0.396 0.221-0.532v0l2.882-2.88c0.544-0.542 1.294-0.877 2.122-0.877s1.578 0.335 2.122 0.877l3.755 3.755c0.545 0.542 0.882 1.293 0.882 2.122s-0.337 1.58-0.882 2.122l-0 0zM17.763 6.237l-16.413 16.413-1.324 7.593c-0.014 0.077-0.022 0.167-0.022 0.258 0 0.83 0.673 1.502 1.502 1.502 0.091 0 0.18-0.008 0.267-0.024l-0.009 0.001 7.593-1.331 16.413-16.413c0.136-0.136 0.22-0.324 0.22-0.531s-0.084-0.395-0.22-0.531l-6.936-6.938c-0.137-0.136-0.326-0.22-0.535-0.22s-0.398 0.084-0.535 0.22l0-0zM7.755 21.244c-0.159-0.158-0.258-0.377-0.258-0.619s0.099-0.461 0.258-0.619l9.626-9.625c0.158-0.159 0.377-0.257 0.618-0.257s0.46 0.098 0.618 0.257l0 0c0.159 0.158 0.258 0.377 0.258 0.619s-0.099 0.461-0.258 0.619l-9.625 9.625c-0.158 0.159-0.377 0.258-0.619 0.258s-0.461-0.099-0.619-0.258l-0-0zM5.499 26.5h3v2.268l-4.031 0.707-1.944-1.944 0.706-4.031h2.268v3z"></path>
</symbol>
<symbol id="icon-twitter" viewBox="0 0 37 32">
<path d="M33.469 8.284c1.458-1.094 2.771-2.406 3.792-3.938-1.312 0.583-2.844 1.021-4.375 1.167 1.604-0.948 2.771-2.406 3.355-4.229-1.386 0.837-2.994 1.492-4.705 1.875l-0.108 0.020c-1.399-1.483-3.378-2.405-5.572-2.405-0.015 0-0.030 0-0.045 0h0.002c-0 0-0.001 0-0.001 0-4.228 0-7.655 3.427-7.655 7.655v0c0 0.583 0.074 1.167 0.22 1.75-6.382-0.384-11.99-3.409-15.794-7.985l-0.029-0.036c-0.657 1.094-1.021 2.406-1.021 3.865 0 2.625 1.312 4.959 3.426 6.345-1.239-0.074-2.479-0.365-3.499-0.948v0.073c0 3.719 2.624 6.782 6.124 7.51-0.582 0.146-1.312 0.292-1.968 0.292-0.511 0-0.948-0.074-1.459-0.146 0.949 3.062 3.792 5.25 7.147 5.323-2.625 2.043-5.906 3.282-9.479 3.282-0.656 0-1.239-0.074-1.823-0.146 3.355 2.187 7.364 3.427 11.74 3.427 14.073 0 21.729-11.595 21.729-21.729v-1.021z"></path>
</symbol>
<symbol id="icon-youtube" viewBox="0 0 45 32">
<path d="M43.665 5.831c-0.486-1.944-2.027-3.484-3.89-3.97-3.483-0.972-17.256-0.972-17.256-0.972s-13.855 0-17.338 0.972c-1.862 0.486-3.403 2.027-3.889 3.97-0.972 3.401-0.972 10.694-0.972 10.694s0 7.211 0.972 10.695c0.486 1.944 2.025 3.401 3.889 3.889 3.484 0.891 17.338 0.891 17.338 0.891s13.773 0 17.256-0.891c1.864-0.486 3.404-1.944 3.89-3.889 0.972-3.484 0.972-10.695 0.972-10.695s0-7.291-0.972-10.694zM17.982 23.087v-13.125l11.505 6.562-11.505 6.562z"></path>
</symbol>
</defs>
</svg>
